<svg width="40" height="42" viewBox="0 0 40 42" fill="none" xmlns="http://www.w3.org/2000/svg">
<path d="M11.9778 22.1907C10.0233 20.6653 8.19275 18.9875 6.50325 17.173C5.19349 15.7674 3.99472 14.2623 2.91774 12.6712C5.39281 7.60459 10.0558 3.80206 15.6764 2.49401C15.0888 3.85069 14.5774 5.23915 14.1446 6.6529C12.59 11.7111 11.9778 16.9137 11.9778 22.1907ZM18.67 2.04561C17.8313 3.77259 17.1278 5.56198 16.5657 7.3977C15.8392 9.76798 15.3015 12.1921 14.9578 14.6472C19.5195 12.0134 24.3447 9.93694 29.4966 8.75556C31.308 8.3401 32.7308 8.10534 33.8295 7.97192C32.0551 6.08392 29.9123 4.57987 27.5337 3.55271C25.155 2.52554 22.591 1.99709 20 2.00001C19.5524 2.00001 19.1091 2.01521 18.67 2.04561ZM35.7514 10.371C33.8371 10.5061 31.9599 10.7898 30.0624 11.2247C27.6461 11.7805 25.2776 12.5268 22.9792 13.4566C27.5409 16.0912 31.7521 19.2309 35.3512 23.1027C36.3597 24.1847 37.3069 25.3222 38.1885 26.51C38.7163 24.7662 39 22.916 39 21C39 17.0624 37.8026 13.4042 35.7514 10.371ZM37.0814 29.3296C36.0044 27.7386 34.8057 26.2335 33.4959 24.8279C31.8067 23.0131 29.9764 21.335 28.0222 19.8093C28.0222 25.0863 27.4092 30.2889 25.8545 35.3471C25.3082 37.1263 24.799 38.4775 24.3649 39.4959C29.967 38.1785 34.6114 34.3836 37.0814 29.3296ZM21.3292 39.9544C22.1678 38.2277 22.8714 36.4386 23.4335 34.6031C24.1604 32.2321 24.6983 29.8071 25.0422 27.3511C20.4797 29.9857 15.6553 32.0614 10.5034 33.2427C8.69121 33.6582 7.26747 33.893 6.16885 34.0272C7.94339 35.9156 10.0864 37.4199 12.4653 38.4472C14.8443 39.4746 17.4087 40.003 20 40C20.447 40 20.89 39.9848 21.3292 39.9544ZM4.24774 31.6273C6.1621 31.4922 8.0393 31.2085 9.93676 30.7736C12.3527 30.2181 14.7209 29.4721 17.0191 28.5426C12.4566 25.9079 8.24703 22.7683 4.64801 18.8973C3.37965 17.5336 2.46427 16.4172 1.79885 15.5314C1.26746 17.3056 0.998333 19.1479 1.00001 21C1.00001 24.9368 2.19743 28.5941 4.24774 31.6273Z" fill="#FAC73D"/>
</svg>
