<svg width="20" height="20" viewBox="0 0 20 20" fill="none" xmlns="http://www.w3.org/2000/svg">
<g clip-path="url(#clip0_73_3261)">
<path d="M5.77778 10.6267C4.74912 9.82382 3.78566 8.94077 2.89645 7.98578C2.2071 7.24598 1.57617 6.45383 1.00934 5.61645C2.312 2.94978 4.76623 0.94845 7.72445 0.260006C7.41515 0.974049 7.14599 1.70482 6.91823 2.44889C6.1 5.11111 5.77778 7.84933 5.77778 10.6267ZM9.3 0.0240063C8.8586 0.932944 8.4883 1.87473 8.19245 2.84089C7.81008 4.08841 7.52712 5.36425 7.34623 6.65645C9.74711 5.27022 12.2867 4.17734 14.9982 3.55556C15.9516 3.33689 16.7004 3.21334 17.2787 3.14312C16.3448 2.14943 15.217 1.35783 13.9651 0.817214C12.7132 0.276602 11.3637 -0.00153016 10 6.33147e-06C9.76445 6.33147e-06 9.53111 0.00800634 9.3 0.0240063ZM18.2902 4.40578C17.2827 4.47689 16.2947 4.62623 15.296 4.85511C14.0243 5.14762 12.7777 5.54041 11.568 6.02978C13.9689 7.41645 16.1853 9.06889 18.0796 11.1067C18.6104 11.6761 19.1089 12.2749 19.5729 12.9C19.8507 11.9822 20 11.0084 20 10C20 7.92756 19.3698 6.00222 18.2902 4.40578ZM18.9902 14.384C18.4234 13.5466 17.7925 12.7545 17.1031 12.0147C16.2141 11.0595 15.2508 10.1763 14.2222 9.37333C14.2222 12.1507 13.8996 14.8889 13.0813 17.5511C12.7938 18.4876 12.5258 19.1987 12.2973 19.7347C15.2458 19.0413 17.6902 17.044 18.9902 14.384ZM10.6996 19.976C11.1409 19.0672 11.5112 18.1256 11.8071 17.1596C12.1897 15.9116 12.4728 14.6353 12.6538 13.3427C10.2524 14.7293 7.71334 15.8218 5.00178 16.4436C4.048 16.6622 3.29867 16.7858 2.72045 16.8564C3.65441 17.8503 4.7823 18.6421 6.03439 19.1828C7.28648 19.7235 8.63616 20.0016 10 20C10.2353 20 10.4684 19.992 10.6996 19.976ZM1.70934 15.5933C2.71689 15.5222 3.70489 15.3729 4.70356 15.144C5.97513 14.8516 7.22154 14.459 8.43111 13.9698C6.02978 12.5831 3.81423 10.9307 1.92 8.89333C1.25245 8.17556 0.770671 7.588 0.420448 7.12178C0.140769 8.05557 -0.000877325 9.02523 4.08823e-06 10C4.08823e-06 12.072 0.630226 13.9969 1.70934 15.5933Z" fill="#1E1E20"/>
</g>
<defs>
<clipPath id="clip0_73_3261">
<rect width="20" height="20" fill="white"/>
</clipPath>
</defs>
</svg>
