<svg width="32" height="32" viewBox="0 0 32 32" fill="none" xmlns="http://www.w3.org/2000/svg">
<path d="M25.984 29V25H29.984V29H25.984Z" fill="#FAC73D"/>
<path d="M21.0983 28.7525L17.9268 20.5066H7.49045L5.3193 17.5217L4.56152 19.492L6.73827 22.4853L4.35586 28.7525H1L4.56152 19.492L5.3193 17.5217L11.2888 2H14.2759L24 28.7525H21.0983ZM13.9809 9.46234C13.9071 9.26334 13.7842 8.90266 13.6121 8.3803C13.44 7.85794 13.2679 7.32313 13.0958 6.77589C12.9483 6.20378 12.8254 5.76848 12.7271 5.46999C12.6041 5.96748 12.4689 6.4774 12.3214 6.99977C12.1985 7.49726 12.0633 7.95743 11.9157 8.3803C11.7928 8.80316 11.6822 9.16384 11.5839 9.46234L8.59677 17.5217H16.9311L13.9809 9.46234Z" fill="white"/>
</svg>
