<svg width="198" height="54" viewBox="0 0 198 54" fill="none" xmlns="http://www.w3.org/2000/svg">
<path d="M34.6842 46L29.6845 35.5202H13.232L9.80924 31.7266L8.61462 34.2308L12.0462 38.035L8.29039 46H3L8.61462 34.2308L9.80924 31.7266L19.22 12H23.929L39.2587 46H34.6842ZM23.4639 21.484C23.3477 21.2311 23.1539 20.7727 22.8826 20.1088C22.6113 19.4449 22.34 18.7652 22.0687 18.0697C21.8361 17.3426 21.6423 16.7894 21.4873 16.41C21.2935 17.0423 21.0804 17.6904 20.8478 18.3543C20.654 18.9865 20.4409 19.5714 20.2083 20.1088C20.0145 20.6462 19.8401 21.1046 19.6851 21.484L14.9761 31.7266H28.1148L23.4639 21.484Z" fill="white"/>
<path d="M164.092 39.3413L165.033 18.9983C166.327 18.7511 167.582 18.6274 168.799 18.6274C169.18 18.6274 169.456 18.8367 169.627 19.2551L175.076 34.1486L180.526 19.2551C180.697 18.8367 180.973 18.6274 181.353 18.6274C182.723 18.6274 183.978 18.7511 185.119 18.9983L186.061 39.3413H182.951L182.466 21.8515L177.245 36.4881C175.647 36.7544 174.544 36.8876 173.935 36.8876C173.326 36.8876 172.946 36.6784 172.794 36.2599L167.687 21.8515L167.202 39.3413H164.092Z" fill="white"/>
<path d="M142.949 39.3413L149.711 19.2266C149.863 18.8272 150.196 18.6274 150.71 18.6274C150.919 18.6274 151.936 18.6845 153.762 18.7986L160.581 39.3413H157.243L155.389 33.3497H148.17L146.344 39.3413H142.949ZM148.941 30.7818H154.59L151.737 21.5377V21.7088L148.941 30.7818Z" fill="white"/>
<path d="M132.472 39.3421V31.1535L125.682 18.9991L129.077 18.6567L134.099 28.2433L139.149 18.6567L142.544 18.9991L135.725 31.1821V39.3421H132.472Z" fill="white"/>
<path d="M106.506 39.3422V18.7996H109.758V27.359H118.375V18.7996H121.628V39.3422H118.375V30.098H109.758V39.3422H106.506Z" fill="white"/>
<path d="M88.5244 38.0319L89.523 35.3785C91.4822 36.4437 93.118 36.9763 94.4304 36.9763C95.7429 36.9763 96.7415 36.7195 97.4262 36.2059C98.111 35.6923 98.4534 34.9886 98.4534 34.0946C98.4534 33.1055 98.0159 32.3161 97.1409 31.7265C96.6464 31.4031 96.2279 31.1653 95.8855 31.0132C95.5622 30.861 95.0486 30.6423 94.3448 30.357C93.6601 30.0526 93.1275 29.8149 92.7471 29.6437C92.3667 29.4535 91.9101 29.1872 91.3776 28.8448C90.864 28.4834 90.4646 28.122 90.1792 27.7606C89.4374 26.8666 89.0665 25.7824 89.0665 24.508C89.0665 22.739 89.6752 21.303 90.8925 20.1997C92.1289 19.0965 93.6791 18.5449 95.5432 18.5449C96.6844 18.5449 97.7876 18.7351 98.8528 19.1156C99.918 19.496 100.736 19.8764 101.307 20.2568L100.165 22.739C98.3012 21.769 96.8461 21.2839 95.7999 21.2839C94.7538 21.2839 93.9169 21.5407 93.2892 22.0543C92.6615 22.5488 92.3476 23.2051 92.3476 24.023C92.3476 24.936 92.7566 25.6683 93.5745 26.2199C94.2592 26.6764 95.0486 27.0949 95.9426 27.4753C96.8366 27.8557 97.4643 28.1315 97.8257 28.3027C98.2061 28.4739 98.6816 28.7497 99.2522 29.1301C99.8229 29.5105 100.26 29.8909 100.565 30.2714C101.326 31.2604 101.706 32.4207 101.706 33.7522C101.706 35.6733 101.021 37.1474 99.6517 38.1746C98.3012 39.1827 96.5227 39.6867 94.3163 39.6867C92.1099 39.6867 90.1792 39.1351 88.5244 38.0319Z" fill="white"/>
<path d="M80.7615 39.3422V18.7996H84.0141V39.3422H80.7615Z" fill="white"/>
<path d="M61.8696 39.3413V18.9698C63.3533 18.7416 65.6263 18.6274 68.6887 18.6274C70.7429 18.6274 72.3217 19.2171 73.4249 20.3964C74.5281 21.5567 75.0797 23.0498 75.0797 24.8758C75.0797 26.1312 74.7754 27.2439 74.1667 28.214C73.558 29.1651 72.6831 29.8879 71.5418 30.3824L73.4534 34.8333C73.7958 35.6132 74.2238 36.2218 74.7373 36.6593C75.2509 37.0778 75.8025 37.287 76.3921 37.287L75.9356 39.5125H75.2509C74.3759 39.5125 73.5105 39.2842 72.6545 38.8277C71.8176 38.3522 71.1899 37.6484 70.7714 36.7164L68.2036 31.0386C68.0514 31.0576 67.8042 31.0672 67.4618 31.0672H65.1222V39.3413H61.8696ZM65.1222 28.5564H69.9155C70.1818 28.4613 70.4766 28.233 70.8 27.8716C71.3706 27.2249 71.6559 26.2929 71.6559 25.0756C71.6559 22.4887 70.4386 21.1953 68.0039 21.1953C67.167 21.1953 66.2064 21.2428 65.1222 21.3379V28.5564Z" fill="white"/>
<path d="M40.8885 39.3413V18.9413C43.1901 18.7321 45.7865 18.6274 48.6776 18.6274C51.1313 18.6274 53.1381 19.4739 54.6978 21.1667C56.2765 22.8596 57.0659 25.3894 57.0659 28.7561C57.0659 32.1038 56.2575 34.7382 54.6407 36.6593C53.0239 38.5614 50.5512 39.5125 47.2225 39.5125C43.8939 39.5125 41.7825 39.4554 40.8885 39.3413ZM44.1411 36.8305C45.2824 36.9066 46.5378 36.9446 47.9073 36.9446C50.0567 36.9446 51.5593 36.2504 52.4153 34.8618C53.2902 33.4543 53.7277 31.4 53.7277 28.699C53.7277 25.9981 53.2332 24.0769 52.2441 22.9357C51.274 21.7754 49.914 21.1953 48.1641 21.1953C47.3842 21.1953 46.0432 21.2523 44.1411 21.3665V36.8305Z" fill="white"/>
<path d="M190 39V34H195V39H190Z" fill="#FAC73D"/>
</svg>
